<?xml version="1.0" standalone="yes"?>
<svg width="126" height="127">
<path style="fill:#818181; stroke:none;" d="M0 0L0 58L7 58C9.31558 84.5223 34.298 97 58 97L58 104C32.7085 104 5.19216 90.9683 1 63L0 63L0 127L57 127C57.331 116.891 70.8983 116.674 78 111.39C88.8175 103.342 95.0299 91.2407 96.1512 78C96.6369 72.2652 96.4079 68.5032 103 68C106.358 94.5742 87.0306 123.553 59 126L59 127L126 127L126 69L119 69C115.419 42.4316 92.6 30 68 30L68 23C93.8512 23 121.135 36.4393 125 65L126 65L126 0L69 0L69 7C44.2578 10.3481 27.113 33.5546 30 58C16.8169 57.5683 23.2458 39.8727 26.4537 32C32.9813 15.9802 48.8326 3.31362 66 1L45 0L0 0z"/>
<path style="fill:#ffffff; stroke:none;" d="M30 58C28.545 33.0329 44.2253 12.1792 69 7L69 0C50.9978 2.42414 34.3104 12.9742 26.8758 30C23.2972 38.1952 16.18 57.8353 30 58M70 12.439C60.5567 13.9255 51.3392 17.7048 44.0401 23.9344C41.9835 25.6897 35.1399 32.4636 41.1528 34.1096C46.2146 35.4952 59.1347 23.0896 65 21.0787C73.4453 18.1832 83.4838 18.0268 92 20.7461C96.076 22.0477 102.707 27.1118 106.937 26.1721C115.981 24.1624 102.335 16.872 100 15.8727C90.7925 11.9326 79.8882 10.8826 70 12.439M21.3634 16.1759C17.5004 17.9082 15.0039 25.3165 13.6991 29C8.87556 42.6169 9.88126 59.3222 16.865 72C19.0711 76.0048 26.6675 89.2168 32.6775 85.9174C38.0757 82.9539 26.3114 72.1175 24.4529 69C18.081 58.3112 16.2395 45.9094 20.0285 34C21.4308 29.5927 25.0605 25.4203 25.929 21.0046C26.437 18.422 24.3989 14.8147 21.3634 16.1759M68 23L68 30C92.9786 30 113.712 43.4488 119 69L126 69C123.449 37.7687 96.2671 23 68 23M94.1528 40.1752C87.9838 42.7127 96.225 49.5498 98.1003 52.0039C111.789 69.9171 108.029 84.8686 100.739 103.999C99.7809 106.514 100.162 110.596 103.916 110.079C108.292 109.475 110.855 101.468 112.185 98C117.609 83.8575 116.078 66.0862 108.571 53C106.377 49.1757 99.7905 37.8561 94.1528 40.1752M0 58C1.35967 89.1864 30.4896 104 58 104L58 97C34.093 97 10.7784 83.5846 7 58L0 58M57 127C84.748 121.616 108.608 98.2053 103 68C99.0368 68.1301 96.5411 68.5669 96.1975 73.0193C95.0421 87.9948 90.8366 99.6436 79 109.79C71.6764 116.068 57.1273 116.322 57 127M15 105C31.412 115.824 51.813 118.899 70 110.215C74.3282 108.149 88.5354 100.474 85.8241 94.1674C83.3528 88.4195 76.2627 96.7071 74 98.4823C64.0184 106.313 50.5504 110.009 38 107.331C30.4282 105.716 19.6781 95.3847 15 105z"/>
</svg>
